<svg width="63" height="49" viewBox="0 0 63 49" fill="none" xmlns="http://www.w3.org/2000/svg">
<path d="M53.0072 4.76785C49.0726 2.93368 44.8126 1.60243 40.3751 0.833266C40.3362 0.832022 40.2975 0.839323 40.2617 0.854657C40.2259 0.869991 40.1939 0.892985 40.168 0.922017C39.6355 1.89827 39.0142 3.17035 38.6001 4.1466C33.8934 3.4366 29.1068 3.4366 24.4001 4.1466C23.9859 3.14077 23.3647 1.89827 22.8026 0.922017C22.773 0.86285 22.6842 0.833266 22.5955 0.833266C18.158 1.60243 13.9276 2.93368 9.9634 4.76785C9.93381 4.76785 9.90423 4.79743 9.87465 4.82702C1.82798 16.8674 -0.390772 28.5824 0.703812 40.1791C0.703812 40.2383 0.733395 40.2974 0.792562 40.327C6.11756 44.232 11.2355 46.5987 16.2942 48.1666C16.383 48.1962 16.4717 48.1666 16.5013 48.1074C17.6846 46.4804 18.7496 44.7645 19.6667 42.9599C19.7259 42.8416 19.6667 42.7233 19.5484 42.6937C17.8621 42.0429 16.2646 41.2737 14.6967 40.3862C14.5784 40.327 14.5784 40.1495 14.6671 40.0608C14.9926 39.8241 15.318 39.5578 15.6434 39.3212C15.7026 39.262 15.7913 39.262 15.8505 39.2916C26.0271 43.9362 37.0026 43.9362 47.0609 39.2916C47.1201 39.262 47.2088 39.262 47.268 39.3212C47.5934 39.5874 47.9188 39.8241 48.2442 40.0904C48.3626 40.1791 48.3626 40.3566 48.2146 40.4158C46.6763 41.3328 45.0492 42.0724 43.363 42.7233C43.2447 42.7528 43.2151 42.9008 43.2447 42.9895C44.1913 44.7941 45.2563 46.5099 46.4101 48.137C46.4988 48.1666 46.5876 48.1962 46.6763 48.1666C51.7646 46.5987 56.8826 44.232 62.2076 40.327C62.2667 40.2974 62.2963 40.2383 62.2963 40.1791C63.598 26.7778 60.1367 15.1516 53.1255 4.82702C53.0959 4.79743 53.0663 4.76785 53.0072 4.76785ZM21.2051 33.1087C18.158 33.1087 15.6138 30.2983 15.6138 26.837C15.6138 23.3758 18.0988 20.5653 21.2051 20.5653C24.3409 20.5653 26.8259 23.4053 26.7963 26.837C26.7963 30.2983 24.3113 33.1087 21.2051 33.1087ZM41.8246 33.1087C38.7776 33.1087 36.2334 30.2983 36.2334 26.837C36.2334 23.3758 38.7184 20.5653 41.8246 20.5653C44.9605 20.5653 47.4455 23.4053 47.4159 26.837C47.4159 30.2983 44.9605 33.1087 41.8246 33.1087Z" fill="#827790"/>
</svg>
