<svg width="59" height="48" viewBox="0 0 59 48" fill="none" xmlns="http://www.w3.org/2000/svg">
<path d="M52.9354 11.9422C52.9729 12.4663 52.9729 12.9905 52.9729 13.5146C52.9729 29.5 40.806 47.9189 18.5686 47.9189C11.7177 47.9189 5.35346 45.9347 0 42.4907C0.973389 42.6029 1.90921 42.6403 2.92005 42.6403C8.5729 42.6403 13.7767 40.7311 17.9322 37.4741C12.6161 37.3618 8.16116 33.8802 6.62623 29.0883C7.37503 29.2005 8.12371 29.2754 8.90996 29.2754C9.99558 29.2754 11.0813 29.1256 12.0921 28.8637C6.55145 27.7405 2.39585 22.8738 2.39585 16.9962V16.8465C4.00556 17.745 5.87755 18.3065 7.86155 18.3813C4.60455 16.21 2.47075 12.5038 2.47075 8.31085C2.47075 6.06469 3.06963 4.00568 4.11792 2.20871C10.0704 9.54628 19.0178 14.3381 29.0507 14.8623C28.8636 13.9638 28.7512 13.028 28.7512 12.0921C28.7512 5.42825 34.1421 0 40.8433 0C44.3248 0 47.4695 1.46003 49.6783 3.81854C52.4111 3.29445 55.0317 2.28361 57.3528 0.898486C56.4542 3.7063 54.545 6.06481 52.0368 7.56217C54.4702 7.30024 56.8287 6.62623 59 5.69041C57.3531 8.08626 55.2939 10.2201 52.9354 11.9422Z" fill="#7E718C"/>
</svg>
